<?xml version="1.0" encoding="UTF-8" standalone="no"?>
<svg
   version="1.1"
   x="0px"
   y="0px"
   viewBox="0 0 79.999999 80"
   xml:space="preserve"
   id="svg8"
   sodipodi:docname="donation-icon.svg"
   width="80"
   height="80"
   inkscape:version="1.3 (0e150ed6c4, 2023-07-21)"
   xmlns:inkscape="http://www.inkscape.org/namespaces/inkscape"
   xmlns:sodipodi="http://sodipodi.sourceforge.net/DTD/sodipodi-0.dtd"
   xmlns="http://www.w3.org/2000/svg"
   xmlns:svg="http://www.w3.org/2000/svg"><defs
     id="defs8" /><sodipodi:namedview
     id="namedview8"
     pagecolor="#505050"
     bordercolor="#eeeeee"
     borderopacity="1"
     inkscape:showpageshadow="0"
     inkscape:pageopacity="0"
     inkscape:pagecheckerboard="0"
     inkscape:deskcolor="#d1d1d1"
     showgrid="false"
     inkscape:zoom="6.475"
     inkscape:cx="28.803089"
     inkscape:cy="29.57529"
     inkscape:window-width="1920"
     inkscape:window-height="991"
     inkscape:window-x="-9"
     inkscape:window-y="-9"
     inkscape:window-maximized="1"
     inkscape:current-layer="svg8" /><g
     id="g8"
     transform="translate(10.61199)"
     style="fill:#6364ff;fill-opacity:1"><path
       d="m 35.934133,13.795606 c -11.380004,0 -20.600036,9.220032 -20.600036,20.600037 0.01001,11.369995 9.230041,20.589966 20.600036,20.599975 11.369996,0 20.599976,-9.21997 20.599976,-20.599975 0,-11.380005 -9.22998,-20.600037 -20.599976,-20.600037 z m 18.630005,19.730042 h -3.090026 c -0.200013,-3.5 -1.570008,-6.820008 -3.890015,-9.440003 l 2.190002,-2.180053 c 2.900025,3.190002 4.590027,7.300048 4.790039,11.620056 z m -22.850036,3.22998 h -1.029969 c -0.540039,0 -0.970031,-0.429992 -0.970031,-0.970031 0,-0.529969 0.429992,-0.969971 0.970031,-0.969971 h 0.549988 c -0.01001,-0.150025 -0.01001,-0.299988 -0.01001,-0.460022 v -0.190003 h -0.539978 c -0.540039,0 -0.970031,-0.429992 -0.970031,-0.96997 0,-0.53003 0.429992,-0.970032 0.970031,-0.970032 h 0.919983 c 0.570008,-1.519958 1.719971,-2.73999 3.200013,-3.409973 1.47998,-0.660034 3.159973,-0.710022 4.679992,-0.119995 0.5,0.190002 0.75,0.75 0.549988,1.25 -0.190002,0.5 -0.75,0.75 -1.25,0.559998 -1.869995,-0.720033 -3.98999,0.01001 -5.029968,1.71997 h 4.539978 c 0.539978,0 0.969971,0.440002 0.969971,0.970032 0,0.539978 -0.429993,0.96997 -0.969971,0.96997 h -5.130005 v 0.190003 c 0,0.160034 0.01001,0.309997 0.03003,0.460022 h 4.449952 c 0.540039,0 0.970031,0.440002 0.970031,0.96997 0,0.54004 -0.429992,0.970032 -0.970031,0.970032 h -3.709962 c 0.130005,0.190003 0.279968,0.359986 0.440002,0.52002 1.159973,1.159973 2.880005,1.519958 4.409973,0.940002 0.5,-0.200012 1.059998,0.04999 1.25,0.559998 0.200012,0.5 -0.04999,1.059997 -0.549988,1.25 -3.049988,1.169983 -6.47998,-0.27002 -7.770019,-3.27002 z m 4.960022,-21 c 4.349975,0.169983 8.48999,1.859986 11.71997,4.77002 l -2.179992,2.190002 c -2.649964,-2.340027 -6.01001,-3.700012 -9.539978,-3.870056 z m -1.940003,0.02997 v 3.090027 c -3.410034,0.26001 -6.640014,1.640015 -9.190002,3.929993 l -2.179993,-2.179993 c 3.119995,-2.869995 7.140015,-4.570007 11.369995,-4.840027 z m -12.73999,6.220032 2.190002,2.190003 c -2.270019,2.599973 -3.610046,5.880003 -3.800048,9.330015 h -3.089966 c 0.200012,-4.27002 1.859985,-8.330017 4.700012,-11.52002 z m -4.690002,13.460022 h 3.099975 c 0.229981,3.409973 1.580017,6.649964 3.840027,9.209961 l -2.179993,2.190002 C 19.224112,43.71565 17.544119,39.695631 17.304129,35.46565 Z M 34.734121,53.015638 C 30.534109,52.745619 26.554129,51.065626 23.434134,48.235609 l 2.190002,-2.179993 c 2.529968,2.25 5.72998,3.599976 9.109985,3.859985 z m 1.940003,0.01996 v -3.089965 c 3.48999,-0.160035 6.830017,-1.5 9.459961,-3.799988 l 2.190002,2.190002 c -3.219971,2.869995 -7.339966,4.529969 -11.649963,4.699951 z M 49.704092,46.965652 47.51409,44.785598 c 2.320007,-2.579956 3.710022,-5.859985 3.950012,-9.319946 h 3.090027 c -0.239991,4.279968 -1.960022,8.339966 -4.850037,11.5 z"
       id="path1"
       style="fill:#6364ff;fill-opacity:1" /><path
       d="m 58.534109,54.065626 c -1.909973,-2.210022 -5.210022,-2.52002 -7.5,-0.720032 l -7.789978,5.830017 c -1.580017,-1.969971 -4.110046,-2.929993 -6.600037,-2.5 l -7.899963,1.380005 c -1.270019,0.229981 -2.570007,0.160034 -3.809998,-0.190002 l -0.880004,-0.26001 c -4.559998,-1.309998 -9.480042,-0.26001 -13.109986,2.799988 L 10.584097,58.355604 C 10.494127,57.825636 9.9941309,57.46565 9.4641019,57.565626 l -8.65997302,1.51001 c -0.53003,0.08997 -0.880005,0.599975 -0.79004,1.130005 l 3.33001802,18.98999 c 0.03998,0.25 0.179992,0.47998 0.390014,0.630005 0.219971,0.149963 0.479981,0.200012 0.729981,0.159973 l 8.6600341,-1.51001 c 0.519959,-0.09998 0.880005,-0.599976 0.789978,-1.130005 l -0.179993,-1.019958 2.059998,-1.670044 c 0.799988,-0.669983 1.839966,-1 2.890015,-0.929993 l 14.119995,1.040039 h 0.149963 c 3.100037,-0.01001 6.110046,-0.98999 8.610046,-2.820007 0.03998,-0.03003 0.06995,-0.06 0.09998,-0.09003 L 58.484121,55.395643 c 0.369995,-0.360047 0.390015,-0.940003 0.04999,-1.330017 z M 40.364126,70.445631 c -2.160034,1.559997 -4.75,2.409973 -7.410034,2.429992 h -0.03998 L 18.824087,71.815626 c -1.539978,-0.119995 -3.069946,0.359985 -4.269958,1.349975 l -1.210022,0.980042 -2,-11.460022 c 3.160034,-3.219971 7.840026,-4.450012 12.169982,-3.210022 l 0.890015,0.26001 c 1.52002,0.429992 3.119995,0.51001 4.679993,0.23999 l 7.890014,-1.380005 c 2.349976,-0.409973 4.650025,0.890015 5.51001,3.110046 l -11.919983,2.089966 c -0.350036,0.04999 -0.630005,0.290039 -0.76001,0.619995 -0.119995,0.330017 -0.04999,0.690003 0.169983,0.960022 0.229981,0.27002 0.580017,0.390015 0.919983,0.330017 l 12.980042,-2.270019 c 0.529968,-0.09003 0.880005,-0.590027 0.789978,-1.119995 -0.09003,-0.5 -0.229981,-0.98999 -0.429993,-1.460022 l 7.969971,-5.959961 c 0.01001,0 0.01001,-0.01001 0.02002,-0.02002 1.210022,-0.950012 2.890015,-1.010009 4.159973,-0.150024 z"
       id="path2"
       style="fill:#6364ff;fill-opacity:1" /><path
       d="m 35.703741,11.497573 c 0.537052,0 0.971626,-0.435207 0.971626,-0.971624 V 0.9716263 C 36.675367,0.4352083 36.240793,0 35.703741,0 35.167322,0 34.732115,0.4352083 34.732115,0.9716263 v 9.5543227 c 0,0.536417 0.435207,0.971624 0.971626,0.971624 z"
       id="path3"
       style="fill:#6364ff;fill-opacity:1" /><path
       d="m 42.019312,11.497573 c 0.537048,0 0.971626,-0.435207 0.971626,-0.971624 V 4.0484423 c 0,-0.536418 -0.434578,-0.971627 -0.971626,-0.971627 -0.536419,0 -0.971626,0.435209 -0.971626,0.971627 v 6.4775067 c 0,0.536417 0.435207,0.971624 0.971626,0.971624 z"
       id="path4"
       style="fill:#6364ff;fill-opacity:1" /><path
       d="m 29.550112,11.497573 c 0.537048,0 0.971626,-0.435207 0.971626,-0.971624 V 4.0484423 c 0,-0.536418 -0.434578,-0.971627 -0.971626,-0.971627 -0.536419,0 -0.971626,0.435209 -0.971626,0.971627 v 6.4775067 c 0,0.536417 0.435207,0.971624 0.971626,0.971624 z"
       id="path5"
       style="fill:#6364ff;fill-opacity:1" /><path
       d="m 46.553564,13.116951 c 0.537056,0 0.971626,-0.435208 0.971626,-0.971627 V 7.1252573 c 0,-0.536418 -0.43457,-0.971626 -0.971626,-0.971626 -0.536415,0 -0.971626,0.435208 -0.971626,0.971626 v 5.0200667 c 0,0.536419 0.435211,0.971627 0.971626,0.971627 z"
       id="path6"
       style="fill:#6364ff;fill-opacity:1" /><path
       d="m 24.853918,13.116951 c 0.537052,0 0.971626,-0.435208 0.971626,-0.971627 V 7.1252573 c 0,-0.536418 -0.434574,-0.971626 -0.971626,-0.971626 -0.536419,0 -0.971626,0.435208 -0.971626,0.971626 v 5.0200667 c 0,0.536419 0.435207,0.971627 0.971626,0.971627 z"
       id="path7"
       style="fill:#6364ff;fill-opacity:1" /></g><text
     x="-19.085886"
     y="102.99995"
     fill="#000000"
     font-size="5px"
     font-weight="bold"
     font-family="'Helvetica Neue', Helvetica, Arial-Unicode, Arial, Sans-serif"
     id="text7">Created by Rasama studio</text><text
     x="-19.085886"
     y="107.99995"
     fill="#000000"
     font-size="5px"
     font-weight="bold"
     font-family="'Helvetica Neue', Helvetica, Arial-Unicode, Arial, Sans-serif"
     id="text8">from the Noun Project</text></svg>
