<?xml version="1.0" encoding="UTF-8" standalone="no"?>
<svg
   width="98"
   height="96"
   version="1.1"
   id="svg1"
   sodipodi:docname="github-logo.svg"
   inkscape:version="1.3 (0e150ed6c4, 2023-07-21)"
   xmlns:inkscape="http://www.inkscape.org/namespaces/inkscape"
   xmlns:sodipodi="http://sodipodi.sourceforge.net/DTD/sodipodi-0.dtd"
   xmlns="http://www.w3.org/2000/svg"
   xmlns:svg="http://www.w3.org/2000/svg">
  <defs
     id="defs1" />
  <sodipodi:namedview
     id="namedview1"
     pagecolor="#505050"
     bordercolor="#eeeeee"
     borderopacity="1"
     inkscape:showpageshadow="0"
     inkscape:pageopacity="0"
     inkscape:pagecheckerboard="0"
     inkscape:deskcolor="#d1d1d1"
     inkscape:zoom="8.09375"
     inkscape:cx="49.050193"
     inkscape:cy="41.945946"
     inkscape:window-width="1920"
     inkscape:window-height="991"
     inkscape:window-x="-9"
     inkscape:window-y="-9"
     inkscape:window-maximized="1"
     inkscape:current-layer="svg1" />
  <path
     fill-rule="evenodd"
     clip-rule="evenodd"
     d="M48.854 0C21.839 0 0 22 0 49.217c0 21.756 13.993 40.172 33.405 46.69 2.427.49 3.316-1.059 3.316-2.362 0-1.141-.08-5.052-.08-9.127-13.59 2.934-16.42-5.867-16.42-5.867-2.184-5.704-5.42-7.17-5.42-7.17-4.448-3.015.324-3.015.324-3.015 4.934.326 7.523 5.052 7.523 5.052 4.367 7.496 11.404 5.378 14.235 4.074.404-3.178 1.699-5.378 3.074-6.6-10.839-1.141-22.243-5.378-22.243-24.283 0-5.378 1.94-9.778 5.014-13.2-.485-1.222-2.184-6.275.486-13.038 0 0 4.125-1.304 13.426 5.052a46.97 46.97 0 0 1 12.214-1.63c4.125 0 8.33.571 12.213 1.63 9.302-6.356 13.427-5.052 13.427-5.052 2.67 6.763.97 11.816.485 13.038 3.155 3.422 5.015 7.822 5.015 13.2 0 18.905-11.404 23.06-22.324 24.283 1.78 1.548 3.316 4.481 3.316 9.126 0 6.6-.08 11.897-.08 13.526 0 1.304.89 2.853 3.316 2.364 19.412-6.52 33.405-24.935 33.405-46.691C97.707 22 75.788 0 48.854 0z"
     fill="#24292f"
     id="path1" />
  <path
     style="fill:#6364ff;stroke-width:0.123552"
     d="M 32.494208,95.51876 C 23.359946,92.174417 15.659331,86.465454 9.8588138,78.737682 0.94149104,66.857526 -2.1005719,51.366622 1.6268413,36.818533 4.6204227,25.134589 11.997182,14.774711 22.020659,8.1775766 c 2.375545,-1.563509 3.670349,-2.3016882 5.981676,-3.410206 6.829194,-3.2752977 14.430382,-4.88410376 22.036275,-4.66401999 2.980163,0.0862338 4.315259,0.21027933 6.942991,0.6450818 4.359872,0.72141459 8.93702,2.18960739 13.047696,4.18525539 14.61628,7.0959022 24.921792,21.3262292 27.072469,37.3829142 0.72618,5.421565 0.573852,11.099688 -0.437523,16.308881 -2.857444,14.717584 -12.277302,27.36424 -25.507668,34.245389 -3.167569,1.647461 -6.787926,3.069318 -7.803243,3.064639 -0.711086,-0.0033 -1.502711,-0.340974 -1.85794,-0.792574 -0.5473,-0.695778 -0.556463,-0.847247 -0.492947,-8.149026 0.03316,-3.812674 0.01216,-7.606648 -0.04668,-8.431053 -0.200501,-2.809306 -1.1144,-5.364061 -2.458206,-6.871778 -0.337365,-0.378515 -0.61339,-0.713077 -0.61339,-0.743472 0,-0.03039 0.34749,-0.09118 0.772201,-0.135079 2.126544,-0.219801 4.818109,-0.797257 7.021205,-1.506348 7.276647,-2.342072 11.757972,-7.180291 13.497635,-14.57259 0.613894,-2.608608 0.756161,-4.047312 0.757483,-7.660232 0.0011,-3.020932 -0.02552,-3.458398 -0.282028,-4.633205 -0.699132,-3.202063 -2.123609,-6.164544 -4.033421,-8.388299 -0.379466,-0.441845 -0.545339,-0.733183 -0.492408,-0.864865 0.260486,-0.648035 0.687071,-2.680187 0.810923,-3.863049 0.232403,-2.219569 -0.125241,-5.177847 -0.934302,-7.728164 -0.454494,-1.432655 -0.47329,-1.445515 -1.977236,-1.352935 -2.893651,0.178126 -6.694789,1.691502 -10.560757,4.204635 l -1.388868,0.902855 -1.193669,-0.28885 c -3.336698,-0.80743 -6.126576,-1.156647 -9.908701,-1.240298 -4.372737,-0.09671 -8.116714,0.275699 -11.883415,1.182039 l -1.447868,0.348385 -0.528966,-0.357956 c -4.151122,-2.809102 -9.025971,-4.79288 -11.777815,-4.79288 -1.126985,0 -1.19238,0.05994 -1.637581,1.50111 -0.791066,2.560766 -1.090376,4.668026 -0.973661,6.854955 0.0738,1.382792 0.424241,3.408054 0.748973,4.328444 l 0.174647,0.495003 -0.687361,0.854259 c -2.218067,2.756639 -3.613835,6.001805 -4.113833,9.564685 -0.201223,1.433868 -0.165899,5.459307 0.06429,7.32681 0.445115,3.611128 1.210361,6.316007 2.490986,8.804768 2.555525,4.966395 6.91077,8.225544 13.206568,9.882837 1.675292,0.440999 4.961878,1.0435 5.6922,1.0435 0.486239,0 0.52862,0.112871 0.165704,0.441306 -0.494644,0.447646 -1.452728,2.02421 -1.839314,3.026662 -0.214533,0.556301 -0.486258,1.490845 -0.603835,2.076763 l -0.213775,1.065307 -0.732503,0.292025 c -1.605097,0.639895 -2.986255,0.912189 -4.693432,0.925305 -1.327439,0.0102 -1.776742,-0.03654 -2.589026,-0.269296 -1.259694,-0.360963 -2.409023,-0.967749 -3.411177,-1.800921 -1.013995,-0.843019 -1.608917,-1.554384 -2.647672,-3.165897 -0.960945,-1.490804 -2.573054,-3.165911 -3.707337,-3.852212 -1.537761,-0.930429 -3.318914,-1.395859 -4.631694,-1.210298 -2.210448,0.312444 -2.040792,1.370409 0.494886,3.086061 2.106646,1.425368 3.769207,3.579442 5.03052,6.517729 0.825229,1.922409 1.291903,2.660287 2.352836,3.720163 1.462827,1.46137 3.374932,2.463475 5.760114,3.018788 1.569202,0.365338 5.311378,0.367921 7.27133,0.005 l 1.328186,-0.245926 -0.0027,4.829498 c -0.0025,4.421277 -0.0219,4.871272 -0.229655,5.323707 -0.607546,1.323049 -1.8984,1.613109 -3.906628,0.877833 z"
     id="path2" />
</svg>
