<?xml version="1.0" encoding="UTF-8" standalone="no"?>
<svg
   width="75"
   height="79"
   viewBox="0 0 75 79"
   fill="none"
   version="1.1"
   id="svg13"
   sodipodi:docname="mainsquarelogo2.svg"
   inkscape:version="1.2.1 (9c6d41e410, 2022-07-14)"
   inkscape:export-filename="MastodonDE-Logo-Gradient-2160px.png"
   inkscape:export-xdpi="2624.8101"
   inkscape:export-ydpi="2624.8101"
   xmlns:inkscape="http://www.inkscape.org/namespaces/inkscape"
   xmlns:sodipodi="http://sodipodi.sourceforge.net/DTD/sodipodi-0.dtd"
   xmlns:xlink="http://www.w3.org/1999/xlink"
   xmlns="http://www.w3.org/2000/svg"
   xmlns:svg="http://www.w3.org/2000/svg">
  <sodipodi:namedview
     id="namedview15"
     pagecolor="#ffffff"
     bordercolor="#000000"
     borderopacity="0.25"
     inkscape:showpageshadow="2"
     inkscape:pageopacity="0.0"
     inkscape:pagecheckerboard="0"
     inkscape:deskcolor="#d1d1d1"
     showgrid="false"
     showguides="true"
     inkscape:zoom="16"
     inkscape:cx="29.5"
     inkscape:cy="39.5625"
     inkscape:window-width="1918"
     inkscape:window-height="2054"
     inkscape:window-x="1910"
     inkscape:window-y="60"
     inkscape:window-maximized="0"
     inkscape:current-layer="layer8" />
  <defs
     id="defs11">
    <inkscape:path-effect
       effect="fillet_chamfer"
       id="path-effect8619"
       is_visible="true"
       lpeversion="1"
       nodesatellites_param="F,0,0,1,0,0,0,1 @ F,0,1,1,0,0.54780714,0,1 @ F,0,1,1,0,0.54780714,0,1 @ F,0,1,1,0,0.54780714,0,1 @ F,0,1,1,0,0.54780714,0,1 | F,0,0,1,0,0,0,1 @ F,0,0,1,0,0,0,1 @ F,0,0,1,0,0,0,1 @ F,0,0,1,0,0,0,1 @ F,0,0,1,0,0,0,1 @ F,0,0,1,0,0,0,1 @ F,0,0,1,0,0,0,1 @ F,0,0,1,0,0,0,1 @ F,0,0,1,0,0,0,1 @ F,0,0,1,0,0,0,1 @ F,0,0,1,0,0,0,1 @ F,0,0,1,0,0,0,1 @ F,0,0,1,0,0,0,1 @ F,0,0,1,0,0,0,1 @ F,0,0,1,0,0,0,1 @ F,0,0,1,0,0,0,1 @ F,0,0,1,0,0,0,1 @ F,0,0,1,0,0,0,1 @ F,0,0,1,0,0,0,1 @ F,0,0,1,0,0,0,1 @ F,0,0,1,0,0,0,1 @ F,0,0,1,0,0,0,1"
       unit="px"
       method="auto"
       mode="F"
       radius="0"
       chamfer_steps="1"
       flexible="false"
       use_knot_distance="true"
       apply_no_radius="true"
       apply_with_radius="true"
       only_selected="false"
       hide_knots="false" />
    <linearGradient
       id="linearGradient6868"
       x1="37.0692"
       y1="0"
       x2="37.0692"
       y2="79"
       gradientUnits="userSpaceOnUse">
      <stop
         stop-color="#6364FF"
         id="stop6864"
         offset="0"
         style="stop-color:#6263ff;stop-opacity:1;" />
      <stop
         offset="1"
         stop-color="#563ACC"
         id="stop6866"
         style="stop-color:#5539cc;stop-opacity:1;" />
    </linearGradient>
    <linearGradient
       id="paint0_linear_549_34"
       x1="37.0692"
       y1="0"
       x2="37.0692"
       y2="79"
       gradientUnits="userSpaceOnUse">
      <stop
         stop-color="#6364FF"
         id="stop6"
         offset="0" />
      <stop
         offset="1"
         stop-color="#563ACC"
         id="stop8"
         style="stop-color:#5539cc;stop-opacity:1;" />
    </linearGradient>
    <linearGradient
       inkscape:collect="always"
       xlink:href="#paint0_linear_549_34"
       id="linearGradient405"
       x1="37.777458"
       y1="-15.657331"
       x2="37.777458"
       y2="95.255867"
       gradientUnits="userSpaceOnUse" />
    <linearGradient
       inkscape:collect="always"
       xlink:href="#linearGradient6868"
       id="linearGradient6136"
       x1="37.590347"
       y1="-15.952501"
       x2="37.590347"
       y2="94.868637"
       gradientUnits="userSpaceOnUse" />
  </defs>
  <g
     inkscape:groupmode="layer"
     id="layer8"
     inkscape:label="Layer 2"
     style="fill:#ffffff;fill-opacity:1"
     transform="matrix(0.72135642,0,0,0.71306976,10.759883,11.333733)">
    <path
       style="fill:url(#linearGradient405);fill-opacity:1;stroke-width:0.173904;stroke-dasharray:none"
       d="m -14.916181,39.500016 v 54.846492 a 0.54780714,0.54780714 45 0 0 0.547807,0.547807 H 88.506808 a 0.54780714,0.54780714 135 0 0 0.547807,-0.547807 V -15.346477 a 0.54780714,0.54780714 45 0 0 -0.547807,-0.547807 H -14.368374 a 0.54780714,0.54780714 135 0 0 -0.547807,0.547807 z M 39.025438,-0.06395993 c 6.716464,0.11624552 13.517937,0.08582167 20.113206,1.53354733 4.698237,1.3837515 9.08764,4.193061 11.837476,8.3621677 2.178115,3.0500639 3.169934,6.8011239 3.160446,10.5386829 0.227042,7.355176 0.02549,14.72256 -0.331678,22.069793 -0.415563,5.738292 -3.357224,11.391606 -8.330524,14.354385 -4.979227,3.077696 -10.963399,3.57903 -16.640066,4.09415 -5.833643,0.236731 -11.700822,0.514542 -17.525214,-0.0074 -2.831389,-0.364411 -5.669949,-0.745767 -8.449209,-1.416364 0.05139,2.199266 0.637624,4.465149 1.762631,6.353319 2.543359,3.475732 7.073872,4.468997 11.122013,4.421119 5.10699,0.126541 10.150077,-0.800811 15.171904,-1.591665 0.778467,-0.150469 0.254915,1.079919 0.414257,1.500285 -0.0122,1.599979 -0.09123,3.198388 -0.138762,4.797484 -4.088143,2.208663 -8.683932,3.378204 -13.27117,3.874679 -5.083944,0.387765 -10.251016,0.324556 -15.208751,-1.0073 C 15.571495,76.125584 9.0049764,71.738403 4.9827857,65.489758 2.4700873,61.097267 1.9850095,55.907622 1.2276737,50.985099 0.37291596,43.031712 0.25462907,35.016975 0.08870832,27.024851 0.05890335,21.072468 0.45443877,14.610307 4.2255206,9.728838 8.3223041,4.1005467 15.101171,1.0850769 21.852581,0.51739123 c 5.701904,-0.57707974 11.448537,-0.5614647 17.172857,-0.58134835 z"
       id="path6215"
       sodipodi:nodetypes="ccccccsccccccccccccccccccccss"
       inkscape:path-effect="#path-effect8619"
       inkscape:original-d="M -14.916181,39.500016 V 94.894315 H 89.054615 V -15.894284 H -14.916181 Z M 39.025438,-0.06395993 c 6.716464,0.11624552 13.517937,0.08582167 20.113206,1.53354733 4.698237,1.3837515 9.08764,4.193061 11.837476,8.3621677 2.178115,3.0500639 3.169934,6.8011239 3.160446,10.5386829 0.227042,7.355176 0.02549,14.72256 -0.331678,22.069793 -0.415563,5.738292 -3.357224,11.391606 -8.330524,14.354385 -4.979227,3.077696 -10.963399,3.57903 -16.640066,4.09415 -5.833643,0.236731 -11.700822,0.514542 -17.525214,-0.0074 -2.831389,-0.364411 -5.669949,-0.745767 -8.449209,-1.416364 0.05139,2.199266 0.637624,4.465149 1.762631,6.353319 2.543359,3.475732 7.073872,4.468997 11.122013,4.421119 5.10699,0.126541 10.150077,-0.800811 15.171904,-1.591665 0.778467,-0.150469 0.254915,1.079919 0.414257,1.500285 -0.0122,1.599979 -0.09123,3.198388 -0.138762,4.797484 -4.088143,2.208663 -8.683932,3.378204 -13.27117,3.874679 -5.083944,0.387765 -10.251016,0.324556 -15.208751,-1.0073 C 15.571495,76.125584 9.0049764,71.738403 4.9827857,65.489758 2.4700873,61.097267 1.9850095,55.907622 1.2276737,50.985099 0.37291596,43.031712 0.25462907,35.016975 0.08870832,27.024851 0.05890335,21.072468 0.45443877,14.610307 4.2255206,9.728838 8.3223041,4.1005467 15.101171,1.0850769 21.852581,0.51739123 c 5.701904,-0.57707974 11.448537,-0.5614647 17.172857,-0.58134835 z" />
    <g
       id="g6134"
       style="fill-opacity:1;fill:url(#linearGradient6136)">
      <path
         style="fill:url(#linearGradient6136);fill-opacity:1;stroke-width:0.12472441;stroke-dasharray:none"
         d="m 24.0625,44.216064 c 0.0273,2.634077 -0.0404,5.293052 0.106933,7.911621 2.670088,0.13929 5.365431,9.5e-5 8.03003,-0.234619 2.777964,-0.457724 5.188889,-2.641443 5.749999,-5.426514 0.561009,-2.730822 0.173563,-5.915206 -1.973632,-7.894531 -1.58571,-1.563933 -3.864337,-2.120811 -6.035645,-2.057129 -1.958885,-0.05133 -3.918469,-0.06883 -5.877685,-0.10376 0,2.601644 0,5.203288 0,7.804932 z m 5.664795,-4.133789 c 1.727498,-0.147225 3.750882,0.662384 4.266357,2.45459 0.479208,1.832595 0.349893,4.189437 -1.408447,5.314941 -1.318113,0.898091 -3.020724,0.581276 -4.522705,0.743897 0,-2.854086 0,-5.708171 0,-8.562256 0.554931,0.01628 1.109863,0.03255 1.664795,0.04883 z"
         id="path6209"
         transform="matrix(1.3862773,0,0,1.4023873,-14.916181,-15.894284)" />
      <path
         style="fill:url(#linearGradient6136);fill-opacity:1;stroke-width:0.12472441;stroke-dasharray:none"
         d="m 39.8125,44.3125 c 0,2.625 0,5.25 0,7.875 3.875,0 7.75,0 11.625,0 0,-1.208334 0,-2.416667 0,-3.625 -2.583334,0 -5.166667,0 -7.75,0 0,-0.958334 0,-1.916667 0,-2.875 2.125,0 4.25,0 6.375,0 0,-0.998536 0,-1.997071 0,-2.995606 -2.104167,-0.0223 -4.208334,-0.0446 -6.3125,-0.06689 -0.02376,-0.854167 -0.04753,-1.708334 -0.07129,-2.5625 2.586263,0 5.172526,0 7.758789,0 0,-1.208334 0,-2.416667 0,-3.625 -3.875,0 -7.75,0 -11.625,0 0,2.625 0,5.25 0,7.875 z"
         id="path6211"
         transform="matrix(1.3862773,0,0,1.4023873,-14.916181,-15.894284)" />
      <path
         style="fill:url(#linearGradient6136);fill-opacity:1;stroke-width:0.12472441;stroke-dasharray:none"
         d="m 31.659424,13.079834 c -2.796742,-0.04283 -5.779744,1.40299 -6.798584,4.140381 -1.080985,2.808077 -0.641448,5.886175 -0.783723,8.823964 0.01951,2.891481 -0.09918,5.832268 0.09061,8.693369 1.752355,0.128703 3.513728,0.05376 5.269776,0.07495 0.05021,-4.85535 -0.111681,-9.717897 0.113281,-14.568604 0.09777,-1.520329 1.622101,-2.518825 3.069115,-2.289932 1.435586,-0.03127 2.524553,1.317392 2.434248,2.701963 0.166941,4.7161 0.08649,9.43809 0.144586,14.156573 1.743083,0 3.486166,0 5.229248,0 0.07757,-5.002392 -0.05819,-10.013784 0.206787,-15.01001 0.542776,-2.447363 4.669375,-2.520752 5.334717,-0.108887 0.301763,3.013 0.123064,6.060694 0.198069,9.087631 0.0097,2.010422 0.01948,4.020843 0.02923,6.031266 1.750406,0 3.500814,0 5.25122,0 -0.05214,-5.349379 0.0057,-10.71789 -0.114715,-16.055333 -0.576442,-2.26663 -2.127887,-4.333937 -4.369074,-5.154158 -1.887397,-0.664603 -4.02183,-0.671959 -5.939306,-0.127179 -1.322184,0.430674 -2.375921,1.395418 -3.221191,2.444336 -1.235766,-1.730091 -3.275136,-2.838951 -5.41711,-2.833023 -0.242198,-0.01158 -0.484793,-0.01191 -0.727177,-0.0073 z"
         id="path6213"
         transform="matrix(1.3862773,0,0,1.4023873,-14.916181,-15.894284)" />
      <path
         style="fill:url(#linearGradient6136);fill-opacity:1;stroke-width:0.12472441;stroke-dasharray:none"
         d="m 20.109619,47.857177 c -1.82767,-0.02308 -3.0242,2.405892 -1.765137,3.779541 1.228298,1.522252 4.16531,0.653612 4.106201,-1.385742 0.02727,-1.249956 -1.059288,-2.452784 -2.341064,-2.393799 z"
         id="path6227"
         transform="matrix(1.3862773,0,0,1.4023873,-14.916181,-15.894284)" />
    </g>
    <path
       style="fill:#ffffff;stroke-width:0.0110242;stroke-dasharray:none"
       d="m 32.659494,67.608519 c -7.37468,-0.504753 -12.967447,-3.091634 -16.933936,-7.83263 -1.242086,-1.484619 -1.915054,-2.68368 -2.517513,-4.485583 -0.77917,-2.330429 -1.461304,-6.39937 -1.800931,-10.742579 -0.425334,-5.439243 -0.653731,-15.513894 -0.406772,-17.942834 0.378941,-3.727041 1.191911,-6.085273 2.864247,-8.308505 2.026158,-2.693609 4.944104,-4.666253 8.49401,-5.742278 3.134706,-0.950172 7.563696,-1.253654 17.062604,-1.169158 6.962712,0.06194 9.67672,0.234365 12.816623,0.814284 6.013828,1.110714 10.725841,5.616835 11.758527,11.244734 0.380136,2.071655 0.275068,16.039236 -0.143124,19.026631 -0.532779,3.805967 -2.560233,7.136229 -5.521568,9.069639 -2.960995,1.933187 -7.016649,2.889954 -13.695546,3.230907 -2.562058,0.130791 -9.091777,0.13144 -10.514981,10e-4 -1.513009,-0.138622 -3.92903,-0.491617 -5.566152,-0.813248 -0.726154,-0.142662 -1.331577,-0.248087 -1.345385,-0.234279 -0.07443,0.07443 0.189415,1.780072 0.376733,2.435409 0.502785,1.759007 1.219312,2.794203 2.541543,3.671869 1.659547,1.101571 3.280112,1.530339 6.111349,1.616938 2.511021,0.07681 4.942162,-0.136644 9.34801,-0.820737 1.106478,-0.171802 2.049771,-0.288886 2.096208,-0.260186 0.05223,0.03228 0.06457,0.867738 0.03234,2.190479 -0.04465,1.832778 -0.07263,2.153412 -0.195859,2.244085 -0.269529,0.198322 -2.350947,1.07688 -3.290099,1.388737 -1.774304,0.589181 -3.733717,1.013562 -5.753966,1.246227 -1.098429,0.126502 -4.853631,0.236925 -5.816365,0.171032 z M 21.203779,52.188468 c 1.406529,-0.661147 1.723457,-2.359763 0.664703,-3.562571 -0.476118,-0.540899 -1.031859,-0.79772 -1.711273,-0.79082 -0.654637,0.0066 -1.134754,0.1974 -1.581048,0.62815 -0.496485,0.479193 -0.698717,0.930905 -0.746874,1.668244 -0.03407,0.521625 -0.0083,0.702465 0.145597,1.020295 0.558387,1.153474 1.997495,1.615529 3.228895,1.036702 z m 10.12989,-0.171213 c 1.283438,-0.12336 1.89577,-0.27865 2.784233,-0.706091 1.623523,-0.781082 2.839883,-2.045852 3.494692,-3.633779 0.734013,-1.780001 0.800718,-4.378353 0.16203,-6.311638 -0.782735,-2.369311 -2.524056,-3.940677 -5.114115,-4.61497 -0.767773,-0.19988 -1.086071,-0.225383 -3.669131,-0.293974 -1.555635,-0.04131 -3.315668,-0.07733 -3.911184,-0.08005 l -1.082758,-0.0049 v 5.775124 c 0,3.176318 0.02639,6.741317 0.05864,7.922219 l 0.05865,2.147096 3.101239,-0.05064 c 1.705681,-0.02785 3.558648,-0.09461 4.117704,-0.148345 z m 20.152543,-1.680091 v -1.856155 h -3.889087 -3.889087 v -1.37002 -1.370019 h 3.18198 3.181981 v -1.532715 -1.532716 l -3.103849,-0.0538 c -1.707117,-0.02959 -3.114088,-0.06576 -3.126602,-0.08037 -0.01251,-0.01461 -0.05088,-0.573475 -0.08525,-1.241912 l -0.06249,-1.215339 h 3.896201 3.8962 V 38.22796 36.371805 h -5.877825 -5.877825 v 7.910757 7.910757 h 5.877825 5.877825 z M 29.484431,28.74831 c 0.0082,-7.237559 0.05799,-8.684272 0.319052,-9.266581 0.230082,-0.513205 0.682899,-0.968138 1.233352,-1.239114 0.366544,-0.180441 0.55883,-0.211279 1.3133,-0.210621 0.740508,6.45e-4 0.943161,0.03235 1.249321,0.19546 0.518374,0.276166 0.910274,0.698404 1.170993,1.261639 0.216754,0.46826 0.227613,0.573621 0.287011,2.784771 0.03395,1.263953 0.06515,4.614976 0.06932,7.446718 l 0.0076,5.148621 h 2.638415 2.638415 l 0.05743,-0.809073 c 0.03159,-0.444991 0.05851,-3.060182 0.05983,-5.811534 0.003,-6.181094 0.0878,-8.420976 0.33726,-8.905123 0.237926,-0.461763 0.67658,-0.864678 1.207132,-1.108783 0.637346,-0.293239 1.937457,-0.291551 2.534313,0.0033 0.508264,0.251079 0.966599,0.686061 1.166279,1.106855 0.236512,0.498412 0.315652,2.169655 0.318681,6.729726 0.0015,2.284839 0.02895,5.19834 0.06096,6.474447 l 0.0582,2.320194 h 2.651922 2.651922 l -0.05568,-8.040998 -0.05568,-8.040997 -0.229466,-0.687352 c -0.500034,-1.497827 -1.402226,-2.761357 -2.6491,-3.710094 -0.567609,-0.431888 -1.425783,-0.823287 -2.335401,-1.065137 -0.72825,-0.193628 -1.044251,-0.226342 -2.260793,-0.234055 -2.625343,-0.01665 -3.904172,0.458316 -5.457668,2.026995 l -0.646624,0.652944 -0.804001,-0.78286 c -0.656519,-0.639257 -0.955962,-0.857417 -1.632436,-1.189317 -1.110119,-0.544659 -1.675428,-0.681474 -3.043236,-0.736515 -1.397717,-0.05624 -2.343928,0.05999 -3.425664,0.420799 -1.123215,0.374649 -1.922584,0.87056 -2.760573,1.712599 -1.118989,1.124397 -1.664996,2.396284 -1.933265,4.503418 -0.154449,1.213128 -0.281141,10.221909 -0.184506,13.119792 l 0.06515,1.953858 0.453857,0.03211 c 0.24962,0.01766 1.458168,0.03947 2.685661,0.04846 l 2.231806,0.01635 0.0069,-6.120893 z"
       id="path8478"
       transform="matrix(1.3862773,0,0,1.4023873,-14.916181,-15.894284)" />
    <path
       style="fill:#ffffff;stroke-width:0.00389764;stroke-dasharray:none"
       d="m 28.078125,44.313837 v -4.27149 l 0.539062,0.01997 c 0.296485,0.01098 0.890625,0.02407 1.320313,0.02909 0.870683,0.01017 1.147998,0.05004 1.755004,0.252304 1.152913,0.384177 1.98426,1.182979 2.274871,2.185817 0.176138,0.607815 0.219327,0.96581 0.21887,1.814222 -3.72e-4,0.69104 -0.0085,0.818014 -0.0701,1.099638 -0.280898,1.283613 -0.929479,2.136928 -2.014586,2.650515 -0.608481,0.287998 -1.187705,0.379843 -2.664064,0.422431 -0.567188,0.01636 -1.105078,0.03858 -1.195313,0.04937 l -0.164062,0.01962 z"
       id="path8499"
       transform="matrix(1.3862773,0,0,1.4023873,-14.916181,-15.894284)" />
  </g>
</svg>
