<?xml version="1.0" encoding="UTF-8" standalone="no"?>
<svg
   width="75"
   height="79"
   viewBox="0 0 75 79"
   fill="none"
   version="1.1"
   id="svg13"
   sodipodi:docname="squarelogodraft3.svg"
   inkscape:version="1.2.2 (b0a8486541, 2022-12-01)"
   inkscape:export-filename="squarelogodraft3.png"
   inkscape:export-xdpi="1000"
   inkscape:export-ydpi="1000"
   xmlns:inkscape="http://www.inkscape.org/namespaces/inkscape"
   xmlns:sodipodi="http://sodipodi.sourceforge.net/DTD/sodipodi-0.dtd"
   xmlns="http://www.w3.org/2000/svg"
   xmlns:svg="http://www.w3.org/2000/svg">
  <sodipodi:namedview
     id="namedview15"
     pagecolor="#ffffff"
     bordercolor="#000000"
     borderopacity="0.25"
     inkscape:showpageshadow="2"
     inkscape:pageopacity="0.0"
     inkscape:pagecheckerboard="0"
     inkscape:deskcolor="#d1d1d1"
     showgrid="false"
     showguides="true"
     inkscape:zoom="5.6568543"
     inkscape:cx="41.012193"
     inkscape:cy="44.282562"
     inkscape:window-width="1600"
     inkscape:window-height="817"
     inkscape:window-x="0"
     inkscape:window-y="0"
     inkscape:window-maximized="1"
     inkscape:current-layer="svg13" />
  <path
     d="M73.8393 17.4898C72.6973 9.00165 65.2994 2.31235 56.5296 1.01614C55.05 0.797115 49.4441 0 36.4582 0H36.3612C23.3717 0 20.585 0.797115 19.1054 1.01614C10.5798 2.27644 2.79399 8.28712 0.904997 16.8758C-0.00358524 21.1056 -0.100549 25.7949 0.0682394 30.0965C0.308852 36.2651 0.355538 42.423 0.91577 48.5665C1.30307 52.6474 1.97872 56.6957 2.93763 60.6812C4.73325 68.042 12.0019 74.1676 19.1233 76.6666C26.7478 79.2728 34.9474 79.7055 42.8039 77.9162C43.6682 77.7151 44.5217 77.4817 45.3645 77.216C47.275 76.6092 49.5123 75.9305 51.1571 74.7385C51.1797 74.7217 51.1982 74.7001 51.2112 74.6753C51.2243 74.6504 51.2316 74.6229 51.2325 74.5948V68.6416C51.2321 68.6154 51.2259 68.5896 51.2142 68.5661C51.2025 68.5426 51.1858 68.522 51.1651 68.5058C51.1444 68.4896 51.1204 68.4783 51.0948 68.4726C51.0692 68.4669 51.0426 68.467 51.0171 68.4729C45.9835 69.675 40.8254 70.2777 35.6502 70.2682C26.7439 70.2682 24.3486 66.042 23.6626 64.2826C23.1113 62.762 22.7612 61.1759 22.6212 59.5646C22.6197 59.5375 22.6247 59.5105 22.6357 59.4857C22.6466 59.4609 22.6633 59.4391 22.6843 59.422C22.7053 59.4048 22.73 59.3929 22.7565 59.3871C22.783 59.3813 22.8104 59.3818 22.8367 59.3886C27.7864 60.5826 32.8604 61.1853 37.9522 61.1839C39.1768 61.1839 40.3978 61.1839 41.6224 61.1516C46.7435 61.008 52.1411 60.7459 57.1796 59.7621C57.3053 59.7369 57.431 59.7154 57.5387 59.6831C65.4861 58.157 73.0493 53.3672 73.8178 41.2381C73.8465 40.7606 73.9184 36.2364 73.9184 35.7409C73.9219 34.0569 74.4606 23.7949 73.8393 17.4898Z"
     fill="url(#paint0_linear_549_34)"
     id="path2" />
  <defs
     id="defs11">
    <linearGradient
       id="paint0_linear_549_34"
       x1="37.0692"
       y1="0"
       x2="37.0692"
       y2="79"
       gradientUnits="userSpaceOnUse">
      <stop
         stop-color="#6364FF"
         id="stop6" />
      <stop
         offset="1"
         stop-color="#563ACC"
         id="stop8" />
    </linearGradient>
  </defs>
  <text
     xml:space="preserve"
     style="font-style:normal;font-variant:normal;font-weight:normal;font-stretch:normal;font-size:45.7831px;line-height:0;font-family:AllRoundGothic-Bold;-inkscape-font-specification:AllRoundGothic-Bold;fill:#ffffff;stroke-width:1.52605"
     x="16.119291"
     y="32.90004"
     id="text435"><tspan
       sodipodi:role="line"
       id="tspan433"
       x="16.119291"
       y="32.90004"
       style="stroke-width:1.52605">M</tspan></text>
  <text
     xml:space="preserve"
     style="font-style:normal;font-variant:normal;font-weight:normal;font-stretch:normal;font-size:33.6895px;line-height:0;font-family:AllRoundGothic-Bold;-inkscape-font-specification:AllRoundGothic-Bold;letter-spacing:-1.25016px;fill:#ffffff;stroke-width:1.12299"
     x="8.5334387"
     y="57.234867"
     id="text439"><tspan
       sodipodi:role="line"
       id="tspan437"
       x="8.5334387"
       y="57.234867"
       style="stroke-width:1.12299">.DE</tspan></text>
</svg>
